HIERARCHY
ROOT Hips
{
	OFFSET 0.00 0.00 0.00
	CHANNELS 6 Xposition Yposition Zposition Yrotation Xrotation Zrotation
	JOINT LHipJoint
	{
		OFFSET	0.0000	0.0000	0.0000
		CHANNELS 3 Yrotation Xrotation Zrotation
		JOINT LeftUpLeg
		{
			OFFSET	1.0138	-0.0809	-0.0827
			CHANNELS 3 Yrotation Xrotation Zrotation
			JOINT LeftLeg
			{
				OFFSET	0.4110	-3.9095	0.3245
				CHANNELS 3 Yrotation Xrotation Zrotation
				JOINT LeftFoot
				{
					OFFSET	0.3810	-4.0555	-0.1470
					CHANNELS 3 Yrotation Xrotation Zrotation
					JOINT LeftToeBase
					{
						OFFSET	0.1396	-0.4462	1.3079
						CHANNELS 3 Yrotation Xrotation Zrotation
						End Site
						{
							OFFSET 0.0161 -0.0248 0.1809
						}
					}
				}
			}
		}
	}
	JOINT LowerBack
	{
		OFFSET	0.0000	0.7977	-0.3873
		CHANNELS 3 Yrotation Xrotation Zrotation
		JOINT Spine
		{
			OFFSET	0.0000	1.4131	0.1715
			CHANNELS 3 Yrotation Xrotation Zrotation
			JOINT Spine1
			{
				OFFSET	0.0000	1.4392	-0.1032
				CHANNELS 3 Yrotation Xrotation Zrotation
				JOINT LeftShoulder
				{
					OFFSET	0.2274	1.0382	0.4032
					CHANNELS 3 Yrotation Xrotation Zrotation
					JOINT LeftArm
					{
						OFFSET	1.4730	-0.2267	-0.0231
						CHANNELS 3 Yrotation Xrotation Zrotation
						JOINT LeftForeArm
						{
							OFFSET	1.6131	-1.8059	0.0081
							CHANNELS 3 Yrotation Xrotation Zrotation
							JOINT LeftHand
							{
								OFFSET	1.2197	-1.2423	1.6317
								CHANNELS 3 Yrotation Xrotation Zrotation
								JOINT LThumb
								{
									OFFSET	0.0109	-0.0753	0.4387
									CHANNELS 3 Yrotation Xrotation Zrotation
									End Site
									{
										OFFSET -0.2090 -0.0868 0.2097
									}
								}
								JOINT LeftFingerBase
								{
									OFFSET	0.1071	-0.1567	0.2607
									CHANNELS 3 Yrotation Xrotation Zrotation
									JOINT LeftHandFinger1
									{
										OFFSET	0.1706	-0.2492	0.6830
										CHANNELS 3 Yrotation Xrotation Zrotation
										End Site
										{
											OFFSET 0.0335 -0.1507 0.2071
										}
									}
								}
							}
						}
					}
				}
				JOINT Neck
				{
					OFFSET	0.0000	1.7498	0.2381
					CHANNELS 3 Yrotation Xrotation Zrotation
					JOINT Neck1
					{
						OFFSET	0.0000	0.5043	0.1959
						CHANNELS 3 Yrotation Xrotation Zrotation
						JOINT Head
						{
							OFFSET	0.0000	0.5044	0.1959
							CHANNELS 3 Yrotation Xrotation Zrotation
							End Site
							{
								OFFSET 0.0000 1.4798 -0.0693
							}
						}
					}
				}
				JOINT RightShoulder
				{
					OFFSET	-0.2274	1.0382	0.4032
					CHANNELS 3 Yrotation Xrotation Zrotation
					JOINT RightArm
					{
						OFFSET	-1.4730	-0.2267	-0.0231
						CHANNELS 3 Yrotation Xrotation Zrotation
						JOINT RightForeArm
						{
							OFFSET	-1.6131	-1.8059	0.0081
							CHANNELS 3 Yrotation Xrotation Zrotation
							JOINT RightHand
							{
								OFFSET	-1.2197	-1.2423	1.6317
								CHANNELS 3 Yrotation Xrotation Zrotation
								JOINT RThumb
								{
									OFFSET	-0.0109	-0.0753	0.4387
									CHANNELS 3 Yrotation Xrotation Zrotation
									End Site
									{
										OFFSET 0.2090 -0.0868 0.2097
									}
								}
								JOINT RightFingerBase
								{
									OFFSET	-0.1071	-0.1567	0.2607
									CHANNELS 3 Yrotation Xrotation Zrotation
									JOINT RightHandFinger1
									{
										OFFSET	-0.1706	-0.2492	0.6830
										CHANNELS 3 Yrotation Xrotation Zrotation
										End Site
										{
											OFFSET -0.0335 -0.1507 0.2071
										}
									}
								}
							}
						}
					}
				}
			}
		}
	}
	JOINT RHipJoint
	{
		OFFSET	0.0000	0.0000	0.0000
		CHANNELS 3 Yrotation Xrotation Zrotation
		JOINT RightUpLeg
		{
			OFFSET	-1.0138	-0.0809	-0.0827
			CHANNELS 3 Yrotation Xrotation Zrotation
			JOINT RightLeg
			{
				OFFSET	-0.4110	-3.9095	0.3245
				CHANNELS 3 Yrotation Xrotation Zrotation
				JOINT RightFoot
				{
					OFFSET	-0.3810	-4.0555	-0.1470
					CHANNELS 3 Yrotation Xrotation Zrotation
					JOINT RightToeBase
					{
						OFFSET	-0.1396	-0.4462	1.3079
						CHANNELS 3 Yrotation Xrotation Zrotation
						End Site
						{
							OFFSET -0.0161 -0.0248 0.1809
						}
					}
				}
			}
		}
	}
}
MOTION
Frames: 13
Frame Time: 0.0333333
0.3107 8.5274 0.1461 -4.4409 -1.5814 3.5064 0.0000 -0.0000 0.0000 -1.8991 -9.8178 -15.1485 10.9373 24.3665 4.8208 6.5192 -15.7255 7.7572 -0.0000 0.0168 -0.0000 0.0000 -0.0000 0.0000 -2.7383 4.3628 -0.8165 -5.4833 8.7731 -0.5632 -11.8992 2.7687 0.1983 -5.8606 -31.4420 -14.7370 19.8859 21.9447 1.7201 -0.6745 21.7303 -1.7397 32.1215 18.0205 15.2066 -15.4183 27.9914 -18.9387 -9.0860 -0.5994 -4.7833 1.7113 -8.3449 1.5167 1.7113 -8.3449 1.5167 9.2927 -4.0449 -2.1051 1.6804 1.4090 1.5362 -8.4178 -14.3278 26.0134 -17.7486 19.9553 -0.9941 1.0755 35.5586 -20.8901 -27.9940 -2.6489 -12.2238 -7.5678 9.3286 -1.1145 2.2109 -8.4701 -0.7863 0.0000 -0.0000 0.0000 -0.5271 -24.8703 -1.5142 -20.3756 54.8398 -14.6533 0.4869 -3.3228 -8.4501 -0.0000 -8.6291 0.0000 
0.3201 8.5610 0.1069 -3.3652 -1.7043 3.0146 0.0000 -0.0000 0.0000 -2.0418 -6.3734 -14.8521 9.8548 22.6305 4.1089 5.5350 -17.0182 8.3499 0.0000 0.0022 0.0000 0.0000 -0.0000 0.0000 -3.5259 4.5615 -0.4670 -6.9757 9.1786 -0.2017 -12.7042 2.8301 1.1004 -7.0932 -30.9435 -12.4970 15.8732 18.1478 0.4163 0.6772 21.3504 -4.0994 32.5625 18.6455 15.6349 -16.8066 28.6809 -20.1982 -9.6058 -0.0619 -5.2170 1.9163 -8.4625 1.9261 1.9163 -8.4626 1.9261 10.7169 -3.7297 -2.3609 0.1783 1.1680 1.2441 -9.4222 -12.7713 24.9304 -17.9202 20.1178 -1.0498 1.8448 35.1728 -20.3702 -27.9940 -2.6489 -12.2238 -8.0899 8.7053 -1.5424 1.7130 -9.1003 -1.1768 0.0000 -0.0000 0.0000 -0.5497 -27.1187 -0.4478 -19.2571 47.1516 -12.8462 0.6773 -5.3611 -6.7656 -0.0000 -1.3851 0.0000 
0.3288 8.5703 0.0684 -2.3410 -1.8198 2.5140 0.0000 -0.0000 0.0000 -2.0767 -3.1749 -14.4769 8.7442 21.3923 3.5027 4.8082 -18.5468 8.4853 -0.0000 -0.0487 -0.0000 0.0000 -0.0000 0.0000 -4.0833 4.7346 -0.1865 -8.0596 9.5144 -0.0466 -13.5377 2.9045 1.8893 -7.9183 -30.1074 -10.7368 11.3265 13.5480 -0.7404 3.1849 20.2574 -5.5363 32.8989 19.0436 15.9609 -17.7346 29.1198 -21.0418 -9.9296 0.2688 -5.4879 2.0884 -8.5591 2.2930 2.0883 -8.5591 2.2930 11.9520 -3.5891 -2.6307 -1.1608 0.9504 0.9218 -10.3014 -11.6244 24.0483 -18.3726 20.5441 -1.1987 2.6837 34.6587 -20.3071 -27.9940 -2.6489 -12.2238 -8.4400 8.2815 -1.8282 1.3757 -9.5315 -1.4400 0.0000 -0.0000 0.0000 -0.7442 -28.5627 0.7164 -17.4300 38.6383 -10.2876 -0.1664 -6.8323 -4.5356 -0.0000 0.2622 -0.0000 
0.3365 8.5562 0.0303 -1.3352 -1.8877 2.0015 0.0000 -0.0000 0.0000 -2.2328 -0.2582 -14.0416 7.8368 20.5928 3.0647 4.2360 -20.3882 8.3385 -0.0000 -0.0435 -0.0000 0.0000 -0.0000 0.0000 -4.5814 4.8216 0.1088 -9.0682 9.6653 0.0752 -14.3475 2.9849 2.5188 -8.8279 -29.6071 -9.2520 8.1634 10.1930 -1.3292 5.5423 17.2823 -5.9669 33.1373 19.2191 16.1876 -18.1949 29.3310 -21.4607 -10.0552 0.3964 -5.5932 2.2224 -8.6096 2.5777 2.2224 -8.6096 2.5777 12.9149 -3.6535 -2.8827 -2.3031 0.7569 0.5274 -11.0597 -10.8755 23.4233 -18.9810 21.1119 -1.4041 3.3700 33.9822 -20.0459 -27.9940 -2.6489 -12.2238 -8.5978 8.0888 -1.9568 1.2235 -9.7273 -1.5584 0.0000 -0.0000 0.0000 -1.0537 -29.5611 1.9358 -14.8466 30.0808 -7.3486 -2.4698 -8.0441 -2.4691 0.0000 0.2806 -0.0000 
0.3431 8.5220 -0.0035 -0.3723 -1.8215 1.4625 0.0000 -0.0000 0.0000 -2.5617 2.4303 -13.5537 7.3009 20.0296 2.8088 3.4565 -22.6293 8.4709 -0.0000 0.1638 -0.0000 0.0000 -0.0000 0.0000 -5.1117 4.8279 0.4740 -10.1771 9.6419 0.2412 -15.0896 3.0629 2.9963 -9.6819 -29.2765 -8.1134 5.6310 7.4367 -1.6667 7.3153 13.9073 -5.7802 33.3234 19.2249 16.3575 -18.3033 29.3802 -21.5594 -10.0235 0.3642 -5.5666 2.3147 -8.5965 2.7478 2.3147 -8.5965 2.7478 13.5364 -3.9244 -3.0717 -3.2343 0.5927 0.1214 -11.7474 -10.3247 22.9494 -19.4620 21.5563 -1.5705 3.6611 32.7814 -20.0858 -27.9940 -2.6489 -12.2238 -8.5757 8.1158 -1.9388 1.2187 -9.7335 -1.5622 0.0000 -0.0000 0.0000 -1.3299 -30.1035 3.1696 -12.7835 20.4143 -4.8126 -4.7245 -8.4656 -1.3233 -0.0000 -0.0402 -0.0000 
0.3489 8.4815 -0.0230 0.5379 -1.5233 1.0096 0.0000 -0.0000 0.0000 -2.8046 5.0727 -13.0698 6.9959 19.2097 2.6111 2.2195 -24.4948 9.2528 0.0000 0.1394 -0.0000 0.0000 -0.0000 0.0000 -5.4481 4.7341 0.7837 -10.8736 9.4348 0.5117 -15.6258 3.1223 3.2740 -10.3186 -29.0161 -7.4386 3.1925 4.7404 -1.8760 8.2135 12.1592 -5.4479 33.4807 19.0966 16.4936 -18.1386 29.3054 -21.4094 -9.8645 0.2026 -5.4334 2.3631 -8.5120 2.7832 2.3631 -8.5120 2.7832 13.7726 -4.3749 -3.1481 -4.0059 0.4594 -0.1394 -12.3477 -9.9286 22.6509 -19.9843 22.0345 -1.7552 3.0169 31.1321 -20.6903 -27.9940 -2.6489 -12.2238 -8.4177 8.3086 -1.8101 1.2767 -9.6588 -1.5170 0.0000 -0.0000 0.0000 -1.3948 -29.7887 4.1417 -11.4458 11.7480 -2.9687 -6.3081 -9.3127 -1.0581 -0.0000 -0.0857 0.0000 
0.3541 8.4543 -0.0205 1.3955 -0.9484 0.6192 0.0000 -0.0000 0.0000 -2.6550 7.5649 -12.4653 6.6828 18.1126 2.3714 0.8680 -24.8895 10.0529 0.0000 -1.0738 0.0000 0.0000 -0.0000 0.0000 -5.7077 4.5055 1.0695 -11.4098 8.9665 0.8322 -15.7296 3.1296 3.3101 -10.6697 -28.7784 -7.2174 0.9034 2.1862 -1.9676 8.1977 12.0278 -5.1916 33.6094 18.8447 16.5967 -17.7226 29.1142 -21.0308 -9.5892 -0.0788 -5.2032 2.3681 -8.3596 2.6800 2.3681 -8.3596 2.6800 13.6154 -4.9543 -3.0710 -4.7143 0.3442 -0.2089 -12.7874 -9.7272 22.6545 -20.8245 22.7938 -2.0608 1.4736 30.4798 -21.1981 -27.9940 -2.6489 -12.2238 -8.1440 8.6401 -1.5867 1.3738 -9.5339 -1.4414 0.0000 -0.0000 0.0000 -1.3512 -28.3873 4.9601 -10.5115 3.6855 -1.4697 -7.4022 -8.6696 -2.0481 0.0000 -0.0315 0.0000 
0.3577 8.4338 0.0105 2.1803 -0.0945 0.3194 0.0000 -0.0000 0.0000 -2.0034 9.5812 -11.7098 6.3986 17.4500 2.1513 -0.3755 -23.8416 10.3319 0.0000 -3.7835 -0.0000 0.0000 -0.0000 0.0000 -5.9037 4.1587 1.2828 -11.7838 8.2952 1.2862 -15.3167 3.0715 3.0987 -10.7973 -28.6390 -7.3912 -1.0150 0.0387 -1.9656 7.2674 13.1023 -5.0407 33.7122 18.4822 16.6706 -17.0849 28.8143 -20.4509 -9.2110 -0.4694 -4.8875 2.3328 -8.1540 2.4507 2.3329 -8.1540 2.4507 13.0961 -5.5963 -2.8227 -5.3876 0.2456 -0.1059 -13.0628 -9.6564 23.0117 -21.9524 23.7937 -2.4872 -0.9425 31.6509 -21.5096 -27.9940 -2.6489 -12.2238 -7.7631 9.0967 -1.2748 1.5086 -9.3612 -1.3364 0.0000 -0.0000 0.0000 -1.2325 -29.0232 5.6879 -10.4091 2.3541 -1.2842 -8.1231 -9.0892 -3.4563 -0.0000 0.0256 -0.0000 
0.3574 8.4303 0.0505 2.9219 0.9930 0.0084 0.0000 -0.0000 0.0000 -1.0151 10.9951 -10.7241 5.9186 17.3965 1.9026 -1.0351 -21.2777 9.9957 -0.0000 -7.7770 0.0000 0.0000 -0.0000 0.0000 -5.9699 3.7560 1.5827 -11.8787 7.5265 1.9500 -14.6081 2.9860 2.7007 -11.1462 -28.3296 -7.8029 -1.5675 -0.5796 -1.9517 4.8939 14.5137 -4.4170 33.7920 18.0220 16.7193 -16.2562 28.4123 -19.6984 -8.7432 -0.9582 -4.4982 2.2626 -7.9180 2.1236 2.2627 -7.9180 2.1236 12.2809 -6.2300 -2.4197 -5.9183 0.1759 0.1034 -13.4231 -9.1911 23.6368 -22.7717 24.5059 -2.8083 -3.2738 33.4136 -22.2617 -27.9940 -2.6489 -12.2238 -7.2843 9.6626 -0.8815 1.6768 -9.1463 -1.2050 0.0000 -0.0000 0.0000 -1.5528 -28.9476 6.7007 -10.4490 2.1892 -1.3113 -8.9215 -7.1646 -5.8411 0.0000 0.0263 0.0000 
0.3508 8.4172 0.0947 3.6123 2.2117 -0.3060 0.0000 -0.0000 0.0000 -0.0192 11.9249 -9.6267 5.3484 17.9027 1.6639 -1.3414 -18.4556 9.5129 -0.0000 -12.2372 0.0000 0.0000 -0.0000 0.0000 -5.9532 3.3687 1.9418 -11.8074 6.7929 2.7238 -13.9816 2.9228 2.2804 -11.8435 -27.8944 -8.1112 -1.1399 -0.1011 -1.9630 1.7450 15.7583 -3.3079 33.8515 17.4767 16.7471 -15.2678 27.9143 -18.8025 -8.1995 -1.5348 -4.0472 2.1631 -7.6781 1.7387 2.1631 -7.6781 1.7387 11.2576 -6.7941 -1.9140 -6.3261 0.1266 0.3224 -13.9043 -8.4106 24.3377 -23.1388 24.8211 -2.9552 -4.9143 34.4067 -23.8440 -27.9940 -2.6489 -12.2238 -6.7166 10.3223 -0.4130 1.8746 -8.8948 -1.0502 0.0000 -0.0000 0.0000 -2.1888 -28.7242 7.9085 -10.4999 2.1451 -1.3554 -9.8773 -4.0392 -8.4685 0.0000 0.0173 -0.0000 
0.3362 8.3874 0.1396 4.1854 3.3952 -0.6404 0.0000 -0.0000 0.0000 1.0416 12.3831 -8.4141 4.8190 19.1973 1.4729 -1.4459 -15.3055 9.0454 0.0000 -17.0816 0.0000 0.0000 -0.0000 0.0000 -5.8642 3.0112 2.3353 -11.5821 6.1201 3.5630 -13.4086 2.8749 1.8305 -12.5984 -27.4662 -8.4872 0.0293 1.2079 -1.9756 -1.8112 16.8063 -1.9186 33.8937 16.8590 16.7584 -14.1511 27.3268 -17.7923 -7.5931 -2.1885 -3.5463 2.0371 -7.4588 1.3424 2.0372 -7.4588 1.3423 10.1175 -7.2502 -1.3854 -6.5634 0.1050 0.5325 -14.4401 -7.4761 25.0711 -23.0692 24.7615 -2.9272 -5.9050 35.0117 -25.6710 -27.9940 -2.6489 -12.2238 -6.0688 11.0601 0.1239 2.0982 -8.6121 -0.8749 0.0000 -0.0000 0.0000 -2.9771 -28.4754 9.2267 -10.4940 2.4476 -1.4468 -10.8856 -0.6992 -11.1144 -0.0000 0.0089 0.0000 
0.3105 8.3400 0.1866 4.5518 4.2870 -1.0065 0.0000 -0.0000 0.0000 2.1862 12.9183 -7.0684 4.3480 21.0352 1.2978 -1.3498 -11.6119 8.6723 -0.0000 -22.3998 -0.0000 0.0000 -0.0000 0.0000 -5.6919 2.7134 2.7003 -11.1397 5.5863 4.5246 -12.8868 2.8402 1.3406 -13.1212 -26.7417 -9.2934 1.8002 3.1885 -1.9439 -5.6672 17.5667 -0.2148 33.9216 16.1817 16.7575 -12.9366 26.6570 -16.6965 -6.9372 -2.9082 -3.0071 1.8843 -7.2776 0.9813 1.8843 -7.2775 0.9813 8.9371 -7.5911 -0.9248 -6.5567 0.1192 0.7178 -15.0209 -6.4572 25.6644 -22.8204 24.5479 -2.8277 -5.7750 35.0640 -27.3329 -27.9940 -2.6489 -12.2238 -5.3502 11.8603 0.7227 2.3437 -8.3034 -0.6819 0.0000 -0.0000 0.0000 -4.1170 -30.3510 10.7538 -11.0667 7.9863 -2.5173 -11.5226 0.0973 -12.6456 0.0000 0.0020 -0.0000 
0.2703 8.2839 0.2312 4.7168 4.6118 -1.4813 0.0000 -0.0000 0.0000 3.6601 11.9560 -5.3431 4.0177 26.2491 1.2320 -0.8743 -6.6138 8.9380 -0.0000 -28.8442 0.0000 0.0000 -0.0000 0.0000 -5.2662 2.5241 3.1191 -10.1945 5.2499 5.5263 -12.4604 2.8174 0.7428 -13.5136 -26.6766 -10.8011 6.0282 7.8725 -1.6218 -9.9489 17.5222 2.2808 33.9380 15.4574 16.7484 -11.6541 25.9137 -15.5426 -6.2445 -3.6826 -2.4405 1.6993 -7.1414 0.6959 1.6993 -7.1414 0.6959 7.7648 -7.8404 -0.6149 -5.8356 0.2337 0.8236 -15.5971 -5.6686 26.1804 -21.9805 23.8183 -2.4980 -3.2023 33.7216 -27.5883 -27.9940 -2.6489 -12.2238 -4.5701 12.7075 1.3761 2.6070 -7.9745 -0.4743 0.0000 -0.0000 0.0000 -5.7721 -32.4257 12.4162 -12.2725 15.4977 -4.1116 -11.3431 -0.6681 -12.9758 0.0000 -0.0000 0.0000 
